<svg xmlns="http://www.w3.org/2000/svg" width="53.974" height="64.301" viewBox="0 0 53.974 64.301"><defs><style>.a{fill:#b7b4b4;}</style></defs><path class="a" d="M24.175,83.209a2.022,2.022,0,0,0,.741,2.726,1.918,1.918,0,0,0,1.01.266,1.957,1.957,0,0,0,1.751-1,26.868,26.868,0,0,1,46.458,0,2.076,2.076,0,0,0,2.761.731,2.022,2.022,0,0,0,.741-2.726,30.938,30.938,0,0,0-53.46,0ZM51.848,60.534A13.439,13.439,0,0,1,37.439,47.3a2.02,2.02,0,1,0-4.04-.066,17.524,17.524,0,0,0,35.012.864V35.931a9.334,9.334,0,0,0-8.349-9.243l-.269-.4A10.6,10.6,0,0,0,51.242,21.9H45.519A15.393,15.393,0,0,0,30.033,37.194h0a1.972,1.972,0,0,0,2.02,1.995h3.636c7.743,0,15.621,0,21.276-4.987v.066a7.632,7.632,0,0,0,.741-.731,2.037,2.037,0,0,1,2.828-.2,2.011,2.011,0,0,1,.135,2.926l-.943.931a1.708,1.708,0,0,0,.606,2.793h0a7.78,7.78,0,0,0,2.155.465A2.025,2.025,0,0,1,64.3,42.447v4.522A13.505,13.505,0,0,1,51.848,60.534Z" transform="translate(-23.918 -21.9)"/></svg>